<svg xmlns="http://www.w3.org/2000/svg" viewBox="0 0 511.999 511.999" width="512" height="512"><path d="M428.157 157.414l-95.53-69.366a7.906 7.906 0 0 0-9.29 12.795l95.531 69.365a7.872 7.872 0 0 0 4.638 1.509 7.904 7.904 0 0 0 4.651-14.303zm-235.3-37.943c-.684-4.312-4.735-7.258-9.047-6.569L67.212 131.405a7.906 7.906 0 0 0 2.478 15.616l116.599-18.503a7.903 7.903 0 0 0 6.568-9.047z" fill="#eff0f8"/><path d="M508.737 132.553L331.322 3.731a7.895 7.895 0 0 0-5.884-1.41 7.915 7.915 0 0 0-5.159 3.162l-77.371 106.558-10.653-67.129a7.906 7.906 0 0 0-9.047-6.569L6.668 72.706a7.906 7.906 0 0 0-6.569 9.046L42.39 348.265a7.901 7.901 0 0 0 9.046 6.569l49.757-7.896v84.826a7.906 7.906 0 0 0 7.906 7.906H328.35a7.906 7.906 0 0 0 7.906-7.906v-22.293a100.629 100.629 0 0 0 15.304-10.779l19.699 19.7-6.335 6.335a7.907 7.907 0 0 0 0 11.181l71.554 71.554a7.881 7.881 0 0 0 5.591 2.316 7.883 7.883 0 0 0 5.591-2.316l23.852-23.852a7.906 7.906 0 0 0 0-11.18l-71.555-71.554a7.907 7.907 0 0 0-11.182 0l-6.335 6.335-19.699-19.699c15.601-18.212 24.111-41.137 24.111-65.374 0-2.593-.108-5.219-.311-7.84L510.49 143.594a7.903 7.903 0 0 0-1.753-11.041zM394.365 417.648l60.374 60.374-12.671 12.671-60.373-60.374 12.67-12.671zM101.194 161.916v32.401l-23.409 3.715a7.906 7.906 0 0 0 2.478 15.616l20.931-3.321v52.297l-12.837 2.036a7.906 7.906 0 0 0 2.478 15.616l10.359-1.643v52.297l-44.428 7.05L16.954 87.083 217.88 55.199l11.891 74.935-17.337 23.876H109.099a7.906 7.906 0 0 0-7.905 7.906zm219.251 261.943h-203.44V169.824h99.445l.006.001.008-.001h89.608l.006.001.01-.001h14.355v57.639c-10.927-3.974-22.402-5.988-34.258-5.988-2.209 0-4.408.081-6.595.223a7.944 7.944 0 0 0-1.837-.223H159.695a7.906 7.906 0 0 0 0 15.812h72.318a100.946 100.946 0 0 0-22.991 20.213c-7.884 9.4-13.876 19.955-17.874 31.437h-31.452a7.906 7.906 0 0 0 0 15.812h27.336a100.923 100.923 0 0 0-1.51 17.393c0 11.865 2.011 23.34 5.978 34.258h-31.803a7.906 7.906 0 0 0 0 15.812h39.156c17.95 31.328 50.971 50.596 87.335 50.596 11.864 0 23.339-2.011 34.258-5.978v7.029zm25.743-41.719l-.003.003a84.961 84.961 0 0 1-21.433 15.601c-12.005 6.137-24.98 9.249-38.565 9.249-32.039 0-61.01-17.737-75.606-46.289l-.003-.006c-6.135-12.003-9.245-24.976-9.245-38.559a84.943 84.943 0 0 1 3.209-23.145c3.273-11.563 8.858-22.107 16.598-31.337 16.185-19.302 39.894-30.372 65.048-30.372 13.569 0 26.545 3.116 38.564 9.263 25.594 13.089 42.713 37.895 45.788 66.358a86.425 86.425 0 0 1 .502 9.233c-.001 22.667-8.827 43.974-24.854 60.001zm36.353-89.244c-7.362-24.39-23.782-45.177-46.285-58.078v-41.224l42.976 31.204a7.872 7.872 0 0 0 4.638 1.509 7.906 7.906 0 0 0 4.651-14.304l-52.265-37.949v-12.136a7.906 7.906 0 0 0-7.906-7.906h-19.696l-15.664-11.374a7.906 7.906 0 0 0-11.043 1.752c-2.151 2.962-1.94 6.91.263 9.622h-50.238l12.514-17.234.003-.004 83.94-115.603L493.05 140.702 382.541 292.896z" fill="#eff0f8"/><path d="M286.187 255.205c-36.908 0-66.935 30.027-66.935 66.935s30.027 66.935 66.935 66.935 66.935-30.027 66.935-66.935c0-36.909-30.027-66.935-66.935-66.935zm0 118.058c-28.19 0-51.123-22.934-51.123-51.123 0-28.19 22.934-51.123 51.123-51.123 28.19 0 51.123 22.934 51.123 51.123 0 28.189-22.934 51.123-51.123 51.123z" fill="#eff0f8"/><path d="M308.643 320.766a7.908 7.908 0 0 0-11.182 0l-21.082 21.082a7.906 7.906 0 1 0 11.182 11.18l21.082-21.082a7.904 7.904 0 0 0 0-11.18zm-8.433-33.731a7.907 7.907 0 0 0-11.181 0l-23.19 23.19a7.906 7.906 0 1 0 11.182 11.18l23.189-23.19a7.904 7.904 0 0 0 0-11.18z" fill="#eff0f8"/></svg>