<svg xmlns="http://www.w3.org/2000/svg" viewBox="0 0 512 512" width="512" height="512"><g fill="#eff0f8"><path d="M469.333 304.228V74.667C469.333 25.646 351.281 0 234.667 0S0 25.646 0 74.667v320c0 49.021 118.052 74.667 234.667 74.667 22.592 0 45.146-1.117 67.243-3.082C323.388 494.017 356.928 512 394.667 512 459.365 512 512 459.365 512 394.667c0-36.357-16.624-68.9-42.667-90.439zM234.667 21.333C364.896 21.333 448 52.917 448 74.667S364.896 128 234.667 128 21.333 96.417 21.333 74.667s83.105-53.334 213.334-53.334zM21.333 107.682c39.161 27.44 126.6 41.651 213.333 41.651S408.839 135.122 448 107.682v73.651c0 21.75-83.104 53.333-213.333 53.333S21.333 203.083 21.333 181.333v-73.651zM234.667 448c-130.229 0-213.333-31.583-213.333-53.333v-73.651c39.161 27.44 126.6 41.651 213.333 41.651 16.152 0 32.017-.645 47.629-1.604-3.193 10.656-4.962 21.923-4.962 33.604 0 18.342 4.35 35.647 11.887 51.125-18.024 1.329-36.248 2.208-54.554 2.208zm0-106.667c-130.229 0-213.333-31.583-213.333-53.333v-73.651C60.495 241.789 147.934 256 234.667 256S408.839 241.789 448 214.349v75.938c-16.023-8.22-34.121-12.953-53.333-12.953-44.617 0-83.482 25.04-103.319 61.799-18.404 1.396-37.381 2.2-56.681 2.2zm160 149.334c-52.938 0-96-43.063-96-96s43.063-96 96-96 96 43.063 96 96-43.063 96-96 96z"/><path d="M394.667 320A10.66 10.66 0 0 0 384 330.667V416c0 5.896 4.771 10.667 10.667 10.667s10.667-4.771 10.667-10.667v-85.333A10.662 10.662 0 0 0 394.667 320z"/><circle cx="394.667" cy="458.667" r="10.667"/></g></svg>