<svg xmlns="http://www.w3.org/2000/svg" viewBox="0 0 488 488" width="512" height="512"><path fill="#eff0f8" d="M32 64h16v16H32zm32 0h16v16H64zM32 32h16v16H32zm32 0h16v16H64zm32 32h16v16H96zm0-32h16v16H96zm32 32h16v16h-16zm0-32h16v16h-16zm32 32h16v16h-16zm0-32h16v16h-16zm160 0h-72c-4.424 0-8 3.584-8 8v32c0 4.416 3.576 8 8 8h72c4.424 0 8-3.584 8-8V40c0-4.416-3.576-8-8-8zm-8 32h-56V48h56v16zM32 160h16v16H32zm32 0h16v16H64zm-32-32h16v16H32zm32 0h16v16H64zm32 32h16v16H96zm0-32h16v16H96zm32 32h16v16h-16zm0-32h16v16h-16zm32 0h16v16h-16zM32 256h16v16H32zm32 0h16v16H64zm-32-32h16v16H32zm32 0h16v16H64zm32 32h16v16H96zm0-32h16v16H96zm32 32h16v16h-16zm0-32h16v16h-16zm32 32h16v16h-16z"/><path d="M480.688 405.376L387.312 312l56-56H456a8.018 8.018 0 0 0 7.432-5.024l16-40a7.998 7.998 0 0 0-1.776-8.632l-16-16a7.991 7.991 0 0 0-8.624-1.776l-40 16A8.013 8.013 0 0 0 408 208v12.688l-48 48V216c0-6.168-2.408-11.744-6.24-16 3.84-4.256 6.24-9.832 6.24-16v-64c0-6.168-2.408-11.744-6.24-16 3.84-4.256 6.24-9.832 6.24-16V24c0-13.232-10.768-24-24-24H24C10.768 0 0 10.768 0 24v64c0 6.168 2.408 11.744 6.24 16C2.408 108.256 0 113.832 0 120v64c0 6.168 2.408 11.744 6.24 16C2.408 204.256 0 209.832 0 216v64c0 13.232 10.768 24 24 24h268.688l-10.344 10.344A7.979 7.979 0 0 0 280 320v8h-8c-2.128 0-4.16.84-5.656 2.344l-88 88a7.991 7.991 0 0 0 0 11.312l56 56A7.978 7.978 0 0 0 240 488a7.978 7.978 0 0 0 5.656-2.344l88-88A7.979 7.979 0 0 0 336 392v-8h8c2.128 0 4.16-.84 5.656-2.344L368 363.312l77.376 77.376c4.648 4.648 11.08 7.312 17.656 7.312C476.8 448 488 436.8 488 423.032c0-6.672-2.592-12.944-7.312-17.656zm-59.032-175.72A7.979 7.979 0 0 0 424 224v-10.584l30.072-12.032 8.536 8.536L450.584 240H440c-2.128 0-4.16.84-5.656 2.344L376 300.688 363.312 288l58.344-58.344zM16 24c0-4.408 3.584-8 8-8h312c4.416 0 8 3.592 8 8v64c0 4.408-3.584 8-8 8H24c-4.416 0-8-3.592-8-8V24zm0 96c0-4.408 3.584-8 8-8h312c4.416 0 8 3.592 8 8v64c0 4.408-3.584 8-8 8h-32v-24c0-2.12-.84-4.16-2.344-5.656l-32-32A7.965 7.965 0 0 0 264 128h-48a8 8 0 0 0-5.656 13.656L248 179.312V208h-28.688l-37.656-37.656a8.01 8.01 0 0 0-8.72-1.736A8 8 0 0 0 168 176v16H24c-4.416 0-8-3.592-8-8v-64zm328 96v52.688l-40-40V208h32c4.416 0 8 3.592 8 8zM24 288c-4.416 0-8-3.592-8-8v-64c0-4.408 3.584-8 8-8h144v16c0 2.12.84 4.16 2.344 5.656l32 32A7.965 7.965 0 0 0 208 264h60.688l24 24H24zm316.688 80H328c-4.424 0-8 3.584-8 8v12.688l-80 80L195.312 424l80-80H288c4.424 0 8-3.584 8-8v-12.688l16-16L356.688 352l-16 16zm122.344 64c-2.36 0-4.672-.96-6.344-2.624l-83.032-83.032-56-56-40-40A7.965 7.965 0 0 0 272 248h-60.688L184 220.688V208h12.688l13.656 13.656A7.965 7.965 0 0 0 216 224h40c4.424 0 8-3.584 8-8v-40c0-2.12-.84-4.16-2.344-5.656L235.312 144h25.376L288 171.312V232c0 2.12.84 4.16 2.344 5.656l54.56 54.56 1.44 1.44 24 24 99.032 99.032a8.9 8.9 0 0 1 2.624 6.344c0 4.944-4.024 8.968-8.968 8.968z" fill="#eff0f8"/><path fill="#eff0f8" d="M234.328 434.36l39.993-39.992 11.313 11.313-39.993 39.993zm48.003-48.034l15.997-15.997 11.314 11.314-15.997 15.997z"/></svg>