<svg xmlns="http://www.w3.org/2000/svg" viewBox="0 0 512 512" width="512" height="512"><path d="M432.624 214.472h-2.628v-67.811c0-39.275-15.378-76.194-43.302-103.959C358.977 15.144 322.304 0 283.343 0l-.864.002C202.081.464 136.673 66.94 136.673 148.188v36.321a7.885 7.885 0 0 0 7.885 7.885h42.053a7.885 7.885 0 0 0 7.885-7.885v-36.615c0-49.193 39.459-89.597 87.96-90.067 23.882-.187 46.361 8.91 63.356 25.741 16.998 16.835 26.36 39.241 26.36 63.093v67.811H134.045c-21.74 0-39.425 17.686-39.425 39.425v250.218a7.885 7.885 0 0 0 7.885 7.885h361.659a7.885 7.885 0 0 0 7.885-7.885V253.897c0-21.739-17.685-39.425-39.425-39.425zM356.909 72.363c-20.009-19.816-46.504-30.609-74.605-30.305-57.113.554-103.577 48.031-103.577 105.836v28.73h-26.283v-28.436c0-72.602 58.374-132.003 130.126-132.416l.771-.002c34.765 0 67.497 13.519 92.235 38.115 24.924 24.782 38.651 57.731 38.651 92.776v67.811h-26.283v-67.811c-.002-28.093-11.023-54.479-31.035-74.298zm99.37 423.867H110.39V253.897c0-13.044 10.611-23.655 23.655-23.655h298.579c13.044 0 23.655 10.611 23.655 23.655V496.23z" fill="#eff0f8"/><path d="M297.578 350.283c22.964-6.271 39.9-27.304 39.9-52.229 0-29.855-24.289-54.144-54.144-54.144s-54.144 24.289-54.144 54.144c0 24.925 16.936 45.958 39.9 52.229-39.322 6.783-69.338 41.112-69.338 82.342v42.053a7.885 7.885 0 0 0 7.885 7.885h151.392a7.885 7.885 0 0 0 7.885-7.885v-42.053c.002-41.23-30.014-75.559-69.336-82.342zm-52.617-52.23c0-21.159 17.215-38.374 38.374-38.374s38.374 17.215 38.374 38.374-17.215 38.374-38.374 38.374-38.374-17.214-38.374-38.374zm106.185 168.74H215.524v-34.168c0-37.391 30.42-67.811 67.811-67.811s67.811 30.42 67.811 67.811v34.168zm70.965-197.651a7.885 7.885 0 0 0-7.885 7.885V382.16c0 4.355 3.53 7.885 7.885 7.885s7.885-3.53 7.885-7.885V277.027a7.885 7.885 0 0 0-7.885-7.885zm0 134.571a7.885 7.885 0 0 0-7.885 7.885v42.053c0 4.355 3.53 7.885 7.885 7.885s7.885-3.53 7.885-7.885v-42.053a7.885 7.885 0 0 0-7.885-7.885zM80.546 175.305h-32.71c-4.355 0-7.885 3.53-7.885 7.885s3.53 7.885 7.885 7.885h32.71a7.885 7.885 0 1 0 0-15.77zm14.707-24.454l-20.815-20.815a7.884 7.884 0 1 0-11.15 11.151l20.815 20.815c1.539 1.539 3.558 2.31 5.575 2.31s4.036-.77 5.575-2.31a7.885 7.885 0 0 0 0-11.151zm-.211 53.526a7.884 7.884 0 0 0-11.15 0l-20.815 20.815a7.884 7.884 0 0 0 0 11.15c1.539 1.54 3.558 2.31 5.575 2.31s4.036-.77 5.575-2.31l20.815-20.815a7.882 7.882 0 0 0 0-11.15z" fill="#eff0f8"/></svg>